<?xml version="1.0" encoding="UTF-8"?>
<svg xmlns="http://www.w3.org/2000/svg" xmlns:xlink="http://www.w3.org/1999/xlink" version="1.1" viewBox="0 0 1024 1024">
  <defs>
    <style>
      .cls-1 {
        fill: #0c8e7a;
        filter: url(#drop-shadow-1);
      }

      .cls-2 {
        fill: #f1f5fc;
      }
    </style>
    <filter id="drop-shadow-1" filterUnits="userSpaceOnUse">
      <feOffset dx="0" dy="78.97"/>
      <feGaussianBlur result="blur" stdDeviation="39.49"/>
      <feFlood flood-color="#000" flood-opacity=".4"/>
      <feComposite in2="blur" operator="in"/>
      <feComposite in="SourceGraphic"/>
    </filter>
  </defs>
  <!-- Generator: Adobe Illustrator 28.6.0, SVG Export Plug-In . SVG Version: 1.2.0 Build 709)  -->
  <g>
    <g id="Layer_1">
      <g>
        <rect class="cls-1" y="0" width="1024" height="1024" rx="250" ry="250"/>
        <g>
          <path class="cls-2" d="M636.7,587.18"/>
          <g>
            <g>
              <path class="cls-2" d="M797.9,412.3s-28.93-25.37-79.66-14.75c-74.17,15.55-81.15,189.62-81.15,189.62,197.98-34.12,160.8-174.87,160.8-174.87ZM672.02,507.26c7.85,0,14.21,6.4,14.21,14.25,0,7.85-6.36,14.21-14.21,14.21-7.85,0-14.21-6.36-14.21-14.21,0-7.85,6.36-14.25,14.21-14.25Z"/>
              <path class="cls-2" d="M697.8,390.95s-10.54-57.79,3.7-80.63c0,0,41.06-22.53,77.11-9.74,0,0,21.45,42.24,21.14,91.45,0,0-66.43-25.53-101.95-1.08Z"/>
              <path class="cls-2" d="M772.06,285.59s-40.84-6.83-69.46,9.74c0,0-14.69-19.61-7.91-38.06,0,0,13.94-22.54,42.94-27.28,0,0,27.89,40.61,34.44,55.6Z"/>
              <path class="cls-2" d="M726.95,217.34s-29.35,8.73-39.34,29.39c0,0-36.44-30.37,2.19-63.93,0,0,23.88,18.05,37.15,34.54Z"/>
              <path class="cls-2" d="M680.42,175.73s-13.47,9.24-17.79,22.18c0,0-23.39.91-49.96-4.54-26.57-5.45-42.46-25.66-42.46-25.66,0,0,26.2,5.37,44.28,7.27,16.04,1.68,23.74.45,23.74.45,0,0-55.07-16.57-61.2-48.13,0,0,80.54,24.9,103.39,48.44Z"/>
            </g>
            <path class="cls-2" d="M226.46,454.35c17.3,111.31,112.47,158.62,112.47,158.62,51.35-40.37,47.97-108.26,24.82-138.45-28.2-36.81-88.81-23.08-88.81-23.08,27.4-17.55,77.29-4.94,79.55-4.4-48.95-31.76-64.87-121.52-46.41-159.57,18.46-38.05,51.64-55.78,86.82-36.74,35.18,19.04,65.77,69.77,65.77,69.77,21.91-81.33-25.4-103.82-25.4-103.82,38.67-51.31,11.56-89.4,11.56-89.4-185.73,51.93-237.66,215.71-220.36,327.06ZM296.59,507.26c7.85,0,14.21,6.4,14.21,14.25s-6.36,14.21-14.21,14.21c-7.85,0-14.21-6.36-14.21-14.21,0-7.85,6.36-14.25,14.21-14.25Z"/>
          </g>
          <path class="cls-2" d="M471.54,120.93s12.28,105.49,12.28,184.25c0,0-2.89,43.35-15.17,50.58-12.28,7.23-41.91,28.18-46.97,62.14-4.32,29.03,15.63,138.81,21.53,170.1.92,4.86,5.16,8.37,10.1,8.37h0c5.68,0,10.28-4.6,10.28-10.28v-131.34h30.35v123.56c0,9.98,8.09,18.06,18.06,18.06h0c9.98,0,18.06-8.09,18.06-18.06v-123.56h30.35v131.34c0,5.68,4.6,10.28,10.28,10.28h0c4.95,0,9.19-3.51,10.1-8.37,5.89-31.29,25.85-141.08,21.53-170.1-5.06-33.96-34.68-54.91-46.97-62.14-12.28-7.23-15.17-50.58-15.17-50.58,0-78.76,12.28-184.25,12.28-184.25h-80.93Z"/>
          <path class="cls-2" d="M391.19,451.81s-48.66-25.02-65.35-82.28c-21.25-72.88,29.15-102.02,29.15-102.02,0,0,33.85,58.07,23.04,102.61,0,0,25.86-62.65-1.88-96.5,0,0,30.09,9.4,43.28,55.48,10.95,38.26-36.22,85.57-28.23,122.71Z"/>
          <path class="cls-2" d="M628.69,417.85s43.44-39.62,44.67-103.7c1.57-81.57-58.9-97.63-58.9-97.63,0,0-18.8,69.74,4.93,112.91,0,0-44.42-57.72-25.16-100.62,0,0-28.57,18.21-29.3,69.7-.61,42.76,61.61,78.58,63.76,119.35Z"/>
          <path class="cls-2" d="M417.22,517.53s-26.99,159.84,54.91,286.01c0,0-37.02-63.24-41.03-187.66,0,0,71.91,28.96,80.91,48.88,9,19.91-27.65,15.62-13.77,36.13,13.88,20.52,59.52,24.96,57.16,50.76-1.27,13.87-52.39,35-43.39,57.93,9,22.93,25.59,87.17-6.64,92.92-53.41,9.54-65.82-103.18-77.29-105.59s-34.39,15.69-49.48-17.5c-15.08-33.19,7.24-72.41-14.48-75.42-21.72-3.02-53.7-9.05-24.74-46.46,28.96-37.41,57.57-41.11,57.57-41.11,0,0-5.76-52.32,7-109.14l13.27,10.26Z"/>
          <path class="cls-2" d="M692,656.26c-1.04,0-2.06.05-3.07.15.13-1.2.2-2.41.2-3.65,0-9.3-3.81-17.71-9.94-23.76l18.01-21.26-25.19-15.13-9.92,27.38c-2.05-.39-4.17-.61-6.33-.61-8.44,0-16.15,3.14-22.03,8.31-6-8.89-16.16-14.73-27.69-14.73-18.43,0-33.38,14.94-33.38,33.38,0,7.17,2.27,13.81,6.12,19.25-14.54,3.6-25.33,16.74-25.33,32.4s9.8,27.56,23.31,31.83c-3.87,5.45-6.15,12.1-6.15,19.29,0,18.43,14.94,33.38,33.38,33.38,14.43,0,26.71-9.15,31.38-21.97,6.01,5.84,14.21,9.45,23.26,9.45,18.44,0,33.38-14.94,33.38-33.38,0-4.89-1.06-9.52-2.95-13.71.97.09,1.95.14,2.95.14,18.44,0,33.38-14.94,33.38-33.38s-14.94-33.38-33.38-33.38Z"/>
          <circle class="cls-2" cx="562.75" cy="868.63" r="24.07"/>
          <circle class="cls-2" cx="572.65" cy="808.06" r="14.77"/>
          <circle class="cls-2" cx="732.02" cy="602.24" r="12.8"/>
          <circle class="cls-2" cx="532.97" cy="634.52" r="11.82"/>
        </g>
      </g>
    </g>
  </g>
</svg>